<svg class="canvas" viewBox="0 0 1920 1080" preserveAspectRatio="xMaxYMid slice" xmlns="http://www.w3.org/2000/svg" version="1.1" xmlns:xlink="http://www.w3.org/1999/xlink" xmlns:svgjs="http://svgjs.com/svgjs"><rect width="1920" height="1080" fill="hsl(163, 65%, 15%)"></rect><defs><linearGradient x1="0.5" y1="0" x2="0" y2="1" id="SvgjsLinearGradient1035"><stop stop-color="#288a47" offset="0"></stop><stop stop-color="#060f14" offset="0.1"></stop></linearGradient><linearGradient x1="0.5" y1="0" x2="0" y2="1" id="SvgjsLinearGradient1036"><stop stop-color="#288a47" offset="0"></stop><stop stop-color="#060f14" offset="0.22857142857142856"></stop></linearGradient><linearGradient x1="0.5" y1="0" x2="0" y2="1" id="SvgjsLinearGradient1037"><stop stop-color="#288a5b" offset="0"></stop><stop stop-color="#060d14" offset="0.3571428571428571"></stop></linearGradient><linearGradient x1="0.5" y1="0" x2="0" y2="1" id="SvgjsLinearGradient1038"><stop stop-color="#c0f2da" offset="0"></stop><stop stop-color="#428ad7" offset="0.48571428571428565"></stop></linearGradient><linearGradient x1="0.5" y1="0" x2="0" y2="1" id="SvgjsLinearGradient1039"><stop stop-color="#c0f2e4" offset="0"></stop><stop stop-color="#426cd7" offset="0.6142857142857142"></stop></linearGradient><linearGradient x1="0.5" y1="0" x2="0" y2="1" id="SvgjsLinearGradient1040"><stop stop-color="#c0f2da" offset="0"></stop><stop stop-color="#428ad7" offset="0.7428571428571429"></stop></linearGradient><linearGradient x1="0.5" y1="0" x2="0" y2="1" id="SvgjsLinearGradient1041"><stop stop-color="#c0f2e4" offset="0"></stop><stop stop-color="#426cd7" offset="0.8714285714285713"></stop></linearGradient></defs><path d="M0,-501.13693576658324C61.59870926347742,-480.0591926524496,244.70368391248684,-416.70163736239726,369.5922555808645,-374.6704770817813C494.48082724924217,-332.63931680116536,622.8179209599817,-279.62030659521344,749.3314300102661,-248.94997408288748C875.8449390605505,-218.2796415705615,990.0049374069544,-219.91423532404218,1128.6733098825707,-190.64848200782546C1267.341682358187,-161.38272869160875,1449.4538831777259,-111.60737855912757,1581.341664863964,-73.35545418558719C1713.2294465502023,-35.10352981204682,1863.556944143994,20.159977830249428,1920,38.86306423341675L 1920 1080 L 0 1080 Z" fill="url(#SvgjsLinearGradient1035)"></path><path d="M0,-363.59931018732675C50.23400234861227,-348.65891250020616,193.6073668105725,-308.79278815048514,301.4040140916736,-273.9569240646033C409.20066137277473,-239.12105997872146,542.6081219110064,-187.97097043621392,646.7798836866066,-154.58412567203578C750.9516454622068,-121.19728090785765,823.1563340068477,-98.32655206257725,926.4345847452747,-73.63585547953446C1029.7128354837018,-48.94515889649166,1157.7177119512257,-32.47300572394248,1266.4493881171688,-6.439946173778978C1375.181064283112,19.593113376384522,1469.8995397604615,49.70811010941877,1578.8246417409334,82.56250182144653C1687.7497437214054,115.4168935334743,1863.1374402901556,172.6657537188974,1920,190.68640409838758L 1920 1080 L 0 1080 Z" fill="url(#SvgjsLinearGradient1036)"></path><path d="M0,-329.6546591838461C43.35762432007462,-311.1555151259905,171.2908235452959,-239.2469660204364,260.1457459204477,-218.6597948367127C349.00066829559955,-198.07262365298902,434.1878180359974,-230.70503994031495,533.1295342509109,-206.131632081504C632.0712504658244,-181.55822422269304,755.4735542688477,-107.34638909596586,853.7960432099286,-71.21934768384703C952.1185321510095,-35.09230627172821,1042.5081106099237,-10.90926872316118,1123.0644678973965,10.630616391208918C1203.6208251848693,32.17050150557901,1249.5446410870904,33.94197273917491,1337.134186934765,58.019963002373565C1424.7237327824396,82.09795326557222,1551.4574408059048,124.94909023953271,1648.601742983444,155.09855797040086C1745.7460451609832,185.24802570126903,1874.7669571639074,224.9470674847189,1920,238.91676938758252L 1920 1080 L 0 1080 Z" fill="url(#SvgjsLinearGradient1037)"></path><path d="M0,-125.30749424578383C82.85803876624009,-93.7875680939406,330.0818692426508,17.372254565415112,497.1482325974405,63.8120626652755C664.2145959522302,110.25187076513589,841.4086554973834,114.22184033580098,1002.3981801287381,153.3313543533785C1163.3877047600927,192.440868370956,1310.1517437403584,247.76609772774387,1463.0853803855687,298.4691467707406C1616.019017030779,349.1721958137374,1843.8475633975947,431.0362316379227,1920,457.5496486113591L 1920 1080 L 0 1080 Z" fill="url(#SvgjsLinearGradient1038)"></path><path d="M0,-71.36220433985748C46.31956886339114,-48.96369185252901,172.61097992032245,32.06589342112507,277.91741318034684,63.02887058411336C383.22384644037123,93.99184774710166,513.120925890595,84.16065834293371,631.8385995601462,114.4156586380723C750.5562732296975,144.6706589332109,882.08572535445,202.75961201401046,990.2234551976544,244.55887235494487C1098.3611850408588,286.35813269587925,1178.6162055209209,339.0209091953102,1280.6649786193723,365.21122068367873C1382.7137517178237,391.40153217204727,1495.9602568915918,374.9391692652693,1602.5160937883632,401.70074128515614C1709.0719306851345,428.462313305043,1867.0860156313938,505.1006675500258,1920,525.7806528029997L 1920 1080 L 0 1080 Z" fill="url(#SvgjsLinearGradient1039)"></path><path d="M0,92.00538689696054C66.0892432094853,118.28587757045446,271.2104244563621,210.96129800300986,396.53545925691185,249.68833093792404C521.8604940574616,288.4153638728382,628.0341663343612,294.79090618973953,751.9502088032984,324.36758450644567C875.8662512722357,353.9442628231518,1011.9016499474893,381.3070746938871,1140.0317140705354,427.14840083816074C1268.1617781935815,472.9897269824344,1390.7358792199975,553.3679484575256,1520.730593541575,599.4155413720874C1650.7253078631525,645.4631342866493,1853.4550989235959,686.0975554999579,1920,703.433958325532L 1920 1080 L 0 1080 Z" fill="url(#SvgjsLinearGradient1040)"></path><path d="M0,203.3712649554768C77.83512158376392,228.53250868943144,313.0351904365799,308.25033676951995,467.01072950258356,354.33872735920477C620.9862685685872,400.4271179488896,756.4859406674964,420.6823514552235,923.853234396022,479.90160849358574C1091.2205281245476,539.120865531948,1305.1900309397406,651.4569458933487,1471.214491873737,709.6542695893781C1637.2389528077333,767.8515932854076,1845.2024153122895,809.1803371563652,1920,829.0855506697626L 1920 1080 L 0 1080 Z" fill="url(#SvgjsLinearGradient1041)"></path></svg>