<svg class="canvas" viewBox="0 0 1920 1080" preserveAspectRatio="xMaxYMid slice" xmlns="http://www.w3.org/2000/svg" version="1.1" xmlns:xlink="http://www.w3.org/1999/xlink" xmlns:svgjs="http://svgjs.com/svgjs"><rect width="1920" height="1080" fill="hsl(112, 65%, 15%)"></rect><defs><linearGradient x1="0.5" y1="0" x2="0" y2="1" id="SvgjsLinearGradient1049"><stop stop-color="#288a2f" offset="0"></stop><stop stop-color="#061314" offset="0.1"></stop></linearGradient><linearGradient x1="0.5" y1="0" x2="0" y2="1" id="SvgjsLinearGradient1050"><stop stop-color="#358a28" offset="0"></stop><stop stop-color="#061412" offset="0.22857142857142856"></stop></linearGradient><linearGradient x1="0.5" y1="0" x2="0" y2="1" id="SvgjsLinearGradient1051"><stop stop-color="#358a28" offset="0"></stop><stop stop-color="#061412" offset="0.3571428571428571"></stop></linearGradient><linearGradient x1="0.5" y1="0" x2="0" y2="1" id="SvgjsLinearGradient1052"><stop stop-color="#c7f2c0" offset="0"></stop><stop stop-color="#42d7c3" offset="0.48571428571428565"></stop></linearGradient><linearGradient x1="0.5" y1="0" x2="0" y2="1" id="SvgjsLinearGradient1053"><stop stop-color="#c7f2c0" offset="0"></stop><stop stop-color="#42d7c3" offset="0.6142857142857142"></stop></linearGradient><linearGradient x1="0.5" y1="0" x2="0" y2="1" id="SvgjsLinearGradient1054"><stop stop-color="#c0f2d7" offset="0"></stop><stop stop-color="#4291d7" offset="0.7428571428571429"></stop></linearGradient><linearGradient x1="0.5" y1="0" x2="0" y2="1" id="SvgjsLinearGradient1055"><stop stop-color="#d0f2c0" offset="0"></stop><stop stop-color="#42d7a5" offset="0.8714285714285713"></stop></linearGradient></defs><path d="M0,-491.9599975079678C84.61244395664674,-465.12817467544346,347.75980904353503,-373.38793731373477,507.67466373988043,-330.96906051282184C667.5895184362258,-288.5501837119089,797.8276681813403,-278.4990454003315,959.4891281780723,-237.44673670249034C1121.1505881748042,-196.39442800464917,1317.5582784166177,-132.236331524862,1477.6434237202723,-84.65520832577491C1637.7285690239269,-37.07408512668781,1846.2739039533787,25.924134022397684,1920,48.0400024920322L 1920 1080 L 0 1080 Z" fill="url(#SvgjsLinearGradient1049)"></path><path d="M0,-414.8950298958958C65.99175183744929,-392.9906531484893,267.16236338737735,-321.06806231982523,395.95051102469574,-283.46876941145666C524.7386586620141,-245.86947650308807,645.4212812677355,-215.83887169702191,772.7288858239103,-189.2992724456842C900.0364903800852,-162.7596731943465,1038.8314900068021,-164.90306529827595,1159.7961383617449,-124.2311739034304C1280.7607867166876,-83.55928250858486,1371.8161323471911,10.795099541180981,1498.516775953567,54.73207592338913C1625.217419559943,98.66905230559729,1849.752795992261,125.28091631208027,1920,139.3906843898185L 1920 1080 L 0 1080 Z" fill="url(#SvgjsLinearGradient1050)"></path><path d="M0,-298.82345197623084C40.73581430705793,-294.3498922208016,168.7343421917013,-291.64956826649507,244.4148858423476,-271.98209344365546C320.09542949299384,-252.31461862081582,373.7677918101117,-217.07882267319394,454.0832619038777,-180.81860303919302C534.3987319976437,-144.5583834051921,638.2236590461135,-81.8067874903832,726.3077064049435,-54.42077563965004C814.3917537637734,-27.03476378891688,905.8828891731773,-31.676382482732187,982.5875460568573,-16.50253193479407C1059.2922029405372,-1.328681386855953,1107.4818419330027,20.710273906766247,1186.5356477070231,36.62232764797867C1265.5894534810436,52.5343813891911,1366.639481950071,54.32128638609363,1456.9103807009794,78.96979051248047C1547.1812794518878,103.61829463886731,1650.9794369959698,152.71698805918015,1728.1610402124732,184.5133524062997C1805.3426434289765,216.30971675341925,1888.026840035412,255.5422058970481,1920,269.74797659519777L 1920 1080 L 0 1080 Z" fill="url(#SvgjsLinearGradient1051)"></path><path d="M0,-141.59201988850631C43.17982825038084,-128.6832396236581,178.5928884336144,-91.7451006178036,259.078969502285,-64.13933829941698C339.56505057095563,-36.53357598103035,410.87357053097617,2.477504544075213,482.9164864120238,24.042554021813395C554.9594022930714,45.60760349955157,607.0525706433433,48.272629349972235,691.3364647885707,65.2509585670121C775.620358933798,82.22928778405198,902.8840517133756,102.50714921568738,988.6198512833879,125.9125293240526C1074.3556508534002,149.31790943241782,1129.172655638467,175.3391836665341,1205.7512622086447,205.6832392172034C1282.3298687788224,236.02729476787272,1366.6130712833267,281.21806299396223,1448.0914907044544,307.9768626280685C1529.569910125582,334.73566226217474,1615.9703605194861,344.0213269650797,1694.6217787354103,366.23603702184107C1773.2731969513345,388.45074707860243,1882.4369631225684,428.7602753108373,1920,441.26512296863655L 1920 1080 L 0 1080 Z" fill="url(#SvgjsLinearGradient1052)"></path><path d="M0,17.999656423769537C54.111989917397786,47.148882289598816,192.24855238122504,159.7864614915739,324.6719395043867,192.89501161874523C457.0953266275484,226.00356174591656,656.2312596898016,190.30143708927784,794.5403227389702,216.65095718679754C932.8493857881388,243.00047728431724,1025.499956326625,305.4566736627728,1154.5263177993982,350.9921322038635C1283.5526792721714,396.5275907449542,1441.1195445421756,445.8386448728812,1568.6984915756093,489.8637084333418C1696.277438609043,533.8887719938024,1861.4497485959348,594.2627127110793,1920,615.1425135666268L 1920 1080 L 0 1080 Z" fill="url(#SvgjsLinearGradient1053)"></path><path d="M0,136.25577592531857C47.31367792466381,157.34019801601693,190.6206159626954,238.75646395646336,283.88206754798284,262.76230846950875C377.1435191332703,286.7681529825541,478.04030345615325,262.08328944541336,559.5687095117247,280.29084300359085C641.0971155672962,298.49839656176835,682.4167684252528,333.22719393741824,773.0525038814117,372.00762981857355C863.6882393375705,410.78806569972886,996.8212714830116,483.7464705712908,1103.3831222486776,512.9734582905228C1209.9449730143435,542.2004460097547,1320.0113856225364,514.8138223758664,1412.4236084754075,547.3695561339655C1504.8358313282786,579.9252898920646,1573.2603941118055,674.9220623024632,1657.8564593659041,708.3078608391173C1742.4525246200028,741.6936593757714,1876.3094098943175,741.1215996014279,1920,747.68434735389L 1920 1080 L 0 1080 Z" fill="url(#SvgjsLinearGradient1054)"></path><path d="M0,251.6648611859228C52.151136033324576,264.6021335311774,209.77902708398608,291.1165027606346,312.90681619994746,329.28849525745056C416.03460531590883,367.4604877542665,514.8961093630616,437.76468940544737,618.7667346957682,480.6968161668184C722.6373600284747,523.6289429281894,820.0453323197195,549.7445128830109,936.1305681961869,586.8812558256768C1052.2158040726545,624.0179987683427,1205.1057364289666,668.1721990380067,1315.2781499545729,703.5172738228142C1425.4505634801792,738.8623486076217,1496.378074342254,769.9747256882893,1597.165049349825,798.9517045345217C1697.952024357396,827.9286833807541,1866.1941748916374,864.3079065059273,1920,877.3791469002085L 1920 1080 L 0 1080 Z" fill="url(#SvgjsLinearGradient1055)"></path></svg>