<svg class="canvas" viewBox="0 0 1920 1080" preserveAspectRatio="xMaxYMid slice" xmlns="http://www.w3.org/2000/svg" version="1.1" xmlns:xlink="http://www.w3.org/1999/xlink" xmlns:svgjs="http://svgjs.com/svgjs"><rect width="1920" height="1080" fill="hsl(299, 65%, 15%)"></rect><defs><linearGradient x1="0.5" y1="0" x2="0" y2="1" id="SvgjsLinearGradient1063"><stop stop-color="#89288a" offset="0"></stop><stop stop-color="#140606" offset="0.1"></stop></linearGradient><linearGradient x1="0.5" y1="0" x2="0" y2="1" id="SvgjsLinearGradient1064"><stop stop-color="#89288a" offset="0"></stop><stop stop-color="#140606" offset="0.22857142857142856"></stop></linearGradient><linearGradient x1="0.5" y1="0" x2="0" y2="1" id="SvgjsLinearGradient1065"><stop stop-color="#8a2865" offset="0"></stop><stop stop-color="#140b06" offset="0.3571428571428571"></stop></linearGradient><linearGradient x1="0.5" y1="0" x2="0" y2="1" id="SvgjsLinearGradient1066"><stop stop-color="#f1c0f2" offset="0"></stop><stop stop-color="#d74244" offset="0.48571428571428565"></stop></linearGradient><linearGradient x1="0.5" y1="0" x2="0" y2="1" id="SvgjsLinearGradient1067"><stop stop-color="#f2c0e8" offset="0"></stop><stop stop-color="#d75d42" offset="0.6142857142857142"></stop></linearGradient><linearGradient x1="0.5" y1="0" x2="0" y2="1" id="SvgjsLinearGradient1068"><stop stop-color="#f2c0e8" offset="0"></stop><stop stop-color="#d75d42" offset="0.7428571428571429"></stop></linearGradient><linearGradient x1="0.5" y1="0" x2="0" y2="1" id="SvgjsLinearGradient1069"><stop stop-color="#f2c0df" offset="0"></stop><stop stop-color="#d77b42" offset="0.8714285714285713"></stop></linearGradient></defs><path d="M0,-491.40288613652535C39.39952536578463,-476.63593520542975,147.68667254158964,-426.6369271941671,236.39715219470781,-402.8011805499516C325.107631847826,-378.9654339057361,431.5043281121069,-368.6371898123256,532.2628779187089,-348.3884062712326C633.0214277253109,-328.13962273013965,747.3342895991506,-312.64767001027633,840.9484510343196,-281.308479303394C934.5626124694887,-249.96928859651166,999.257189437529,-196.95455000739705,1093.9478465297236,-160.35326202993863C1188.6385036219183,-123.75197405248022,1321.5341563437617,-85.55949305841847,1409.0923935874878,-61.700751438643465C1496.650630831214,-37.84200981886846,1534.1460022566612,-35.583789861641634,1619.29726999208,-17.200812311288622C1704.4485377274987,1.1821652390643926,1869.8828783320132,37.630792834347425,1920,48.59711386347463L 1920 1080 L 0 1080 Z" fill="url(#SvgjsLinearGradient1063)"></path><path d="M0,-423.49667744773944C49.203670763425436,-420.076099513748,210.62578193772697,-431.05154163252496,295.2220245805526,-402.9732098437907C379.81826722337826,-374.89487805505644,429.6583293175397,-278.5114858638742,507.5774558569538,-255.02668671533388C585.4965823963679,-231.54188756679355,693.1483539444936,-276.45767331576405,762.7367838170373,-262.06441495254876C832.3252136895811,-247.67115658933346,855.5711627692558,-206.70846073729246,925.1080350922165,-168.66713653604202C994.6449074151772,-130.6258123347916,1103.6511281664236,-63.180233390291036,1179.9580177548014,-33.8164697450461C1256.2649073431792,-4.4527060998011585,1295.9421916129472,-9.651632742909701,1382.9493726224828,7.515445335427607C1469.9565536320183,24.682523413764915,1612.4926659157616,48.64040014121986,1702.0011038120144,69.18599872497774C1791.5095417082673,89.73159730873562,1883.6668506353358,120.52186381914203,1920,130.7890368379749L 1920 1080 L 0 1080 Z" fill="url(#SvgjsLinearGradient1064)"></path><path d="M0,-235.89836500411008C53.709378160678035,-223.83052573128572,214.04605095201634,-200.66052514384938,322.2562689640682,-163.491329367164C430.4664869761201,-126.32213359047864,547.600640599587,-45.683296267119346,649.2613080723113,-12.883190343997782C750.9219755450356,19.91691557912378,826.7510284647174,4.704174526214199,932.2202738004144,33.30930617156537C1037.6895191361114,61.91443781691653,1168.3349728086948,126.56950836565645,1282.076780086493,158.74759952810925C1395.8185873642913,190.92569069056205,1508.3505808149523,197.39027580641394,1614.6711174672034,226.37785314628215C1720.9916541194546,255.36543048615036,1869.1118529112005,314.95719516381246,1920,332.67306356731854L 1920 1080 L 0 1080 Z" fill="url(#SvgjsLinearGradient1065)"></path><path d="M0,-170.63057496831624C55.50082220896766,-155.27320508761838,227.5656595026963,-103.1977564257529,333.004933253806,-78.48635568412907C438.44420700491565,-53.77495494250523,529.2082050295465,-63.03814007844729,632.6356425066582,-22.36217051857321C736.0630799837699,18.313799041300875,853.634390166422,120.48190385917471,953.569558116476,165.5694616751154C1053.5047260665299,210.6570194910561,1117.9462950296133,226.36205032030895,1232.246650206982,248.163176377071C1346.5470053843505,269.96430243383304,1524.746130881851,269.0323194303951,1639.3716891806873,296.3762180156877C1753.9972474795236,323.7201166009803,1873.228614863448,392.9181762433035,1920,412.22656788882665L 1920 1080 L 0 1080 Z" fill="url(#SvgjsLinearGradient1066)"></path><path d="M0,-29.033189077080472C62.86315363379046,-7.878935134030947,262.2028704243165,56.939532242842965,377.17892180274276,97.89233458121669C492.15497318116905,138.8451369195904,597.7082697898908,191.17655651800732,689.8563082705576,216.68362495316188C782.0043467512245,242.19069338831645,832.6372316730983,220.64951605995446,930.0671526867441,250.93474519214402C1027.4970737003898,281.2199743243336,1158.5465823418065,370.66322910116236,1274.4358343524325,398.39499974629916C1390.3250863630585,426.12677039143597,1517.8086371425727,389.0395910097185,1625.4026647505007,417.32536906296474C1732.9966923584286,445.611147116211,1870.9004441250834,542.9789515653081,1920,568.1096680657768L 1920 1080 L 0 1080 Z" fill="url(#SvgjsLinearGradient1067)"></path><path d="M0,82.60933263025966C58.12188866860808,97.47561118890926,221.27085286592057,132.06462313534038,348.7313320116485,171.8070039821572C476.1918111573764,211.549384828974,628.4472692136835,276.5937156157172,764.7628748743674,321.06361771116053C901.0784805350513,365.53351980660386,1039.5001232561594,397.6853192458556,1166.624965975752,438.62641655481707C1293.7498086953447,479.5675138637785,1401.9494255212157,524.1416203142603,1527.5119311919236,566.7102015649293C1653.0744368626315,609.2787828155983,1854.5853218653206,672.8166203098475,1920,694.0379040588311L 1920 1080 L 0 1080 Z" fill="url(#SvgjsLinearGradient1068)"></path><path d="M0,246.2455719282035C71.93499146334922,260.0270212233402,294.96362182947973,292.7679266251728,431.6099487800953,328.9342676990239C568.2562757307109,365.10060877287503,708.2746423304218,414.67301664748464,819.8779617036932,463.2436183713104C931.4812810769647,511.81422009513614,981.7009614538354,576.1939739986102,1101.2298650197238,620.3578780419783C1220.7587685856122,664.5217820853464,1400.5896939356444,686.2933793647675,1537.0513830990237,728.2270426315193C1673.513072262403,770.1607058982712,1856.175230516504,848.0043884739943,1920,871.9598576424893L 1920 1080 L 0 1080 Z" fill="url(#SvgjsLinearGradient1069)"></path></svg>