<svg class="canvas" viewBox="0 0 1920 1080" preserveAspectRatio="xMaxYMid slice" xmlns="http://www.w3.org/2000/svg" version="1.1" xmlns:xlink="http://www.w3.org/1999/xlink" xmlns:svgjs="http://svgjs.com/svgjs"><rect width="1920" height="1080" fill="hsl(275, 65%, 15%)"></rect><defs><linearGradient x1="0.5" y1="0" x2="0" y2="1" id="SvgjsLinearGradient1084"><stop stop-color="#8a2878" offset="0"></stop><stop stop-color="#140806" offset="0.1"></stop></linearGradient><linearGradient x1="0.5" y1="0" x2="0" y2="1" id="SvgjsLinearGradient1085"><stop stop-color="#75288a" offset="0"></stop><stop stop-color="#140609" offset="0.22857142857142856"></stop></linearGradient><linearGradient x1="0.5" y1="0" x2="0" y2="1" id="SvgjsLinearGradient1086"><stop stop-color="#4e288a" offset="0"></stop><stop stop-color="#14060e" offset="0.3571428571428571"></stop></linearGradient><linearGradient x1="0.5" y1="0" x2="0" y2="1" id="SvgjsLinearGradient1087"><stop stop-color="#ddc0f2" offset="0"></stop><stop stop-color="#d74280" offset="0.48571428571428565"></stop></linearGradient><linearGradient x1="0.5" y1="0" x2="0" y2="1" id="SvgjsLinearGradient1088"><stop stop-color="#f1c0f2" offset="0"></stop><stop stop-color="#d74244" offset="0.6142857142857142"></stop></linearGradient><linearGradient x1="0.5" y1="0" x2="0" y2="1" id="SvgjsLinearGradient1089"><stop stop-color="#d3c0f2" offset="0"></stop><stop stop-color="#d7429e" offset="0.7428571428571429"></stop></linearGradient><linearGradient x1="0.5" y1="0" x2="0" y2="1" id="SvgjsLinearGradient1090"><stop stop-color="#f2c0e8" offset="0"></stop><stop stop-color="#d75d42" offset="0.8714285714285713"></stop></linearGradient></defs><path d="M0,-564.6783364820461C47.54394921797879,-549.0643328999247,199.22444493706314,-500.59205587191576,285.26369530787275,-470.9943149893175C371.30294567868236,-441.39657410671924,428.64750579092123,-403.79348638939035,516.2355022248578,-387.09189118645656C603.8234986587943,-370.3902959835228,712.338303459067,-387.66460167721283,810.7916739114919,-370.7847437717147C909.2450443639168,-353.9048858662166,1011.8145894881575,-312.8656222983957,1106.9557249394074,-285.8127437534679C1202.0968603906574,-258.7598652085401,1284.8669024058074,-236.28154220943264,1381.6384866189917,-208.46747250214779C1478.410070832176,-180.65340279486293,1597.8583113216782,-149.5598481797756,1687.5852302185128,-118.92832550975865C1777.3121491153474,-88.2968028397417,1881.2642050364188,-40.38666798666486,1920,-24.678336482046102L 1920 1080 L 0 1080 Z" fill="url(#SvgjsLinearGradient1084)"></path><path d="M0,-377.4970704021842C51.48948345355644,-365.92658218645374,204.11705904865784,-342.2619053485266,308.93690072133865,-308.0741411078015C413.75674239401945,-273.88637686707636,522.2978382286806,-204.7818738033687,628.919050036085,-172.37048495783353C735.5402618434894,-139.95909611229834,846.809507348409,-134.3576859281385,948.6641715657647,-113.60580803459034C1050.5188357831205,-92.85393014104218,1133.295319561893,-87.365667877557,1240.047035340219,-47.859217596544624C1346.7987511185452,-8.35276731553224,1475.8489721257579,85.99158340480484,1589.1744662357214,123.43289365148397C1702.499960345685,160.8742038981631,1864.8624110392868,167.89601884485575,1920,176.7886438835301L 1920 1080 L 0 1080 Z" fill="url(#SvgjsLinearGradient1085)"></path><path d="M0,-297.6085554086423C56.100927268651596,-284.517240146029,233.52015808969225,-253.17713991802634,336.6055636119096,-219.06066383296232C439.69096913412693,-184.9441877478983,512.608132543117,-121.87329604034926,618.5124331333042,-92.90969889825826C724.4167337234913,-63.94610175616725,867.1510222718175,-76.18108013215384,972.0313671530328,-45.27908098041627C1076.911712034248,-14.377081828678694,1144.9614097929668,59.87381318612022,1247.7945024205958,92.5022960121672C1350.6275950482247,125.13077883821418,1476.9956733222389,120.74838645076244,1589.0299229188063,150.49181597586562C1701.0641725153737,180.2352455009688,1864.8383204864676,250.88436363163285,1920,270.9628731627863L 1920 1080 L 0 1080 Z" fill="url(#SvgjsLinearGradient1086)"></path><path d="M0,-174.3322533519989C57.091693271511645,-151.09517328040624,231.5047413153721,-68.16778132252274,342.55015962906987,-34.90977292244303C453.59557794276765,-1.6517645223633224,562.4741352701426,9.316151566995508,666.2725098821866,25.21579704847933C770.0708844942305,41.115442529963154,860.0466500037944,30.49181508589621,965.3404073013338,60.488099966459906C1070.6341645988732,90.4843848470236,1186.4394854312536,169.57146389509745,1298.0350536674227,205.1935063318615C1409.6306219035919,240.81554876862555,1531.2529923295856,240.33179072483046,1634.9138167183485,274.2203545870442C1738.5746411071113,308.10891844925794,1872.4856361197249,386.1408003521273,1920,408.52488950514396L 1920 1080 L 0 1080 Z" fill="url(#SvgjsLinearGradient1087)"></path><path d="M0,-42.39276688226239C77.52058725569303,-23.326241284559774,301.44369926273095,16.349921189515932,465.12352353415815,72.00638670395331C628.8033478055854,127.6628522183907,813.7738530543431,238.09705183551353,982.0789456285632,291.5460262043619C1150.3840382027834,344.9950005732103,1318.633903250906,348.8328889076714,1474.954078979479,392.7002329170436C1631.2742547080518,436.56757692641577,1845.825679829913,527.7417807033363,1920,554.7500902605948L 1920 1080 L 0 1080 Z" fill="url(#SvgjsLinearGradient1088)"></path><path d="M0,136.14787180301965C69.534027589122,161.3608886694535,283.7542921479309,249.5196794030569,417.20416553473206,287.4259730016226C550.6540389215331,325.3322666001883,676.4578230466933,323.33842752793225,800.6992403208068,363.5856333944139C924.9406575949203,403.8328392608955,1043.3362667869342,483.46577635302833,1162.6526691794127,528.9092082005125C1281.9690715718912,574.3526400479966,1390.3730995389128,599.8016853074723,1516.5976546756774,636.2462244793188C1642.822209812442,672.6907636511653,1852.7662757792796,729.021406772879,1920,747.576443231591L 1920 1080 L 0 1080 Z" fill="url(#SvgjsLinearGradient1089)"></path><path d="M0,191.5585835332271C39.910224203334444,197.72867998280284,138.33104242843018,202.25980954553089,239.46134522000665,228.5791622306815C340.5916480115831,254.89851491583212,510.80710618209235,320.62875648615073,606.7818167494589,349.47469964413085C702.7565273168254,378.32064280211097,736.7536138362736,362.16388304054516,815.309608624206,401.6548211785622C893.8656034121384,441.14575931657924,975.6958496996062,540.9146781316289,1078.1177854770528,586.420328472233C1180.5397212544995,631.9259788128371,1341.8731835513931,648.2261115627351,1429.8412232888859,674.6887232221867C1517.8092630263786,701.1513348816383,1524.2328944501564,721.4319740913878,1605.9260239020089,745.1959984289422C1687.6191533538613,768.9600227664965,1867.6543373170016,805.2600574444177,1920,817.2728692475129L 1920 1080 L 0 1080 Z" fill="url(#SvgjsLinearGradient1090)"></path></svg>