<?xml version="1.0" ?><svg viewBox="0 0 32 32" xmlns="http://www.w3.org/2000/svg"><defs><style>.cls-1{fill:#fdde2e;}.cls-2{fill:#fce87b;}.cls-3{fill:#f1ecf0;fill-rule:evenodd;}</style></defs><g id="Crown"><path class="cls-1" d="M3.48,21.94h25a1.48,1.48,0,0,1,0,3h-25a1.48,1.48,0,1,1,0-3"/><path class="cls-1" d="M5.5,10.77,8.2,7.35a.68.68,0,0,1,1.05,0c.42.54,1,1.31,1.57,2a3.78,3.78,0,0,0,3,1.44h4.42a3.8,3.8,0,0,0,3-1.44l1.57-2a.67.67,0,0,1,1,0l2.71,3.42L22,18.7l-11.47.17Z"/><path class="cls-2" d="M2.19,9.07a.67.67,0,0,1,1.14-.54l4.55,4.69a1.55,1.55,0,0,0,2.24,0l5.4-5.57a.68.68,0,0,1,1,0l5.4,5.57a1.55,1.55,0,0,0,2.24,0l4.55-4.69a.67.67,0,0,1,.76-.14.68.68,0,0,1,.38.68L28.52,21.94h-25Z"/><path class="cls-3" d="M16.5,17.27a.67.67,0,0,1-.5.21.71.71,0,0,1-.51-.21l-2.05-2a.71.71,0,0,1,0-1l2.05-2.05A.71.71,0,0,1,16,12a.67.67,0,0,1,.5.21l2.06,2.05a.71.71,0,0,1,0,1Z"/><path class="cls-1" d="M6.61,19.19A.75.75,0,1,0,6,20a.75.75,0,0,0,.64-.85"/><path class="cls-1" d="M6.22,16.44a.75.75,0,1,0-.64.85.75.75,0,0,0,.64-.85"/><path class="cls-1" d="M5.83,13.68A.76.76,0,0,0,5,13a.75.75,0,0,0-.63.85h0a.73.73,0,0,0,.84.64.75.75,0,0,0,.64-.85Z"/><path class="cls-1" d="M25.39,19.19A.75.75,0,1,1,26,20a.75.75,0,0,1-.64-.85"/><path class="cls-1" d="M25.78,16.44a.75.75,0,1,1,.64.85.75.75,0,0,1-.64-.85"/><path class="cls-1" d="M26.17,13.68a.75.75,0,1,1,1.48.21h0a.75.75,0,1,1-1.48-.21Z"/></g></svg>